<?xml version="1.0" encoding="UTF-8" standalone="no"?>
<!DOCTYPE svg PUBLIC "-//W3C//DTD SVG 1.1//EN"
 "http://www.w3.org/Graphics/SVG/1.1/DTD/svg11.dtd">
<!-- Generated by graphviz version 2.43.0 (0)
 -->
<!-- Title: model Pages: 1 -->
<svg width="453pt" height="174pt"
 viewBox="0.00 0.00 452.58 174.39" xmlns="http://www.w3.org/2000/svg" xmlns:xlink="http://www.w3.org/1999/xlink">
<g id="graph0" class="graph" transform="scale(1 1) rotate(0) translate(4 170.39)">
<title>model</title>
<polygon fill="white" stroke="transparent" points="-4,4 -4,-170.39 448.58,-170.39 448.58,4 -4,4"/>
<!-- CONV_OVEN -->
<g id="node1" class="node">
<title>CONV_OVEN</title>
<polygon fill="darkseagreen" stroke="darkseagreen" points="242.19,-101.19 132.19,-101.19 132.19,-65.19 242.19,-65.19 242.19,-101.19"/>
<text text-anchor="middle" x="187.19" y="-79.49" font-family="Times,serif" font-size="14.00">CONV_OVEN</text>
</g>
<!-- COOKIES_DEM -->
<g id="node3" class="node">
<title>COOKIES_DEM</title>
<ellipse fill="lightsteelblue" stroke="lightsteelblue" cx="361.38" cy="-83.19" rx="83.39" ry="83.39"/>
<text text-anchor="middle" x="361.38" y="-79.49" font-family="Times,serif" font-size="14.00">COOKIES_DEM</text>
</g>
<!-- CONV_OVEN&#45;&gt;COOKIES_DEM -->
<g id="edge2" class="edge">
<title>CONV_OVEN&#45;&gt;COOKIES_DEM</title>
<path fill="none" stroke="forestgreen" d="M242.2,-83.19C250.51,-83.19 259.29,-83.19 268.16,-83.19"/>
<polygon fill="forestgreen" stroke="forestgreen" points="278.18,-83.19 268.18,-87.69 273.18,-83.19 268.18,-83.19 268.18,-83.19 268.18,-83.19 273.18,-83.19 268.18,-78.69 278.18,-83.19 278.18,-83.19"/>
</g>
<!-- DOUGH -->
<g id="node2" class="node">
<title>DOUGH</title>
<ellipse fill="lightsteelblue" stroke="lightsteelblue" cx="48.1" cy="-83.19" rx="48.19" ry="48.19"/>
<text text-anchor="middle" x="48.1" y="-79.49" font-family="Times,serif" font-size="14.00">DOUGH</text>
</g>
<!-- DOUGH&#45;&gt;CONV_OVEN -->
<g id="edge1" class="edge">
<title>DOUGH&#45;&gt;CONV_OVEN</title>
<path fill="none" stroke="firebrick" d="M96.28,-83.19C104.52,-83.19 113.21,-83.19 121.82,-83.19"/>
<polygon fill="firebrick" stroke="firebrick" points="131.85,-83.19 121.85,-87.69 126.85,-83.19 121.85,-83.19 121.85,-83.19 121.85,-83.19 126.85,-83.19 121.85,-78.69 131.85,-83.19 131.85,-83.19"/>
</g>
</g>
</svg>
